<svg width="89" height="44" viewBox="0 0 89 44" fill="none" xmlns="http://www.w3.org/2000/svg">
<path d="M38.522 41.1408C38.522 39.4873 39.7837 38.281 41.4854 38.281C42.3482 38.281 43.099 38.5769 43.61 39.1517L43.0906 39.6548C42.6591 39.1993 42.1319 38.992 41.5173 38.992C40.2549 38.992 39.3203 39.9025 39.3203 41.1408C39.3203 42.379 40.2549 43.2895 41.5173 43.2895C42.1325 43.2895 42.6591 43.0738 43.0906 42.6182L43.61 43.1214C43.099 43.6962 42.3482 43.9999 41.4775 43.9999C39.7837 43.9999 38.522 42.7935 38.522 41.1401V41.1408Z" fill="white"/>
<path d="M50.3992 43.2411V43.9365H46.3416V38.3447H50.2877V39.0395H47.1406V40.7574H49.9443V41.4365H47.1406V43.2418H50.3992V43.2411Z" fill="white"/>
<path d="M58.0911 38.3447V43.9365H57.4362L54.0817 39.7668V43.9365H53.2827V38.3447H53.9377L57.2928 42.5145V38.3447H58.0918H58.0911Z" fill="white"/>
<path d="M62.4682 39.0395H60.5508V38.3447H65.1761V39.0395H63.2587V43.9365H62.4682V39.0395Z" fill="white"/>
<path d="M70.9185 42.5386H67.9466L67.3314 43.9365H66.5083L69.0409 38.3447H69.8314L72.3719 43.9365H71.5331L70.9179 42.5386H70.9185ZM70.6389 41.8992L69.4326 39.1594L68.2262 41.8992H70.6383H70.6389Z" fill="white"/>
<path d="M78.531 43.9365L77.3247 42.2186C77.2126 42.2264 77.0927 42.2349 76.9734 42.2349H75.5917V43.9365H74.7927V38.3447H76.9734C78.4274 38.3447 79.3059 39.0799 79.3059 40.294C79.3059 41.1569 78.8588 41.78 78.0755 42.0595L79.4017 43.9365H78.531ZM78.5069 40.294C78.5069 39.495 77.9718 39.0401 76.9493 39.0401H75.5917V41.5564H76.9493C77.9718 41.5564 78.5069 41.093 78.5069 40.2947V40.294Z" fill="white"/>
<path d="M17.418 26.8503C12.2172 26.8503 7.98622 22.6193 7.98622 17.4186C7.98622 12.2179 12.2172 7.98752 17.418 7.98752C22.6187 7.98752 26.8497 12.2185 26.8497 17.4186C26.8497 13.2104 28.35 9.34636 30.8435 6.33214C27.6461 2.46677 22.8149 0 17.4186 0C7.81416 0 0 7.81416 0 17.4186C0 27.023 7.81416 34.8372 17.4186 34.8372C20.8929 34.8372 24.1294 33.8107 26.8503 32.0511V17.4179C26.8503 22.6187 22.6194 26.8497 17.4186 26.8497L17.418 26.8503Z" fill="white"/>
<path d="M44.2682 7.98752C49.4689 7.98752 53.6999 12.2185 53.6999 17.4186C53.6999 13.2104 55.2002 9.34636 57.6937 6.33214C54.4963 2.46677 49.6651 0 44.2688 0C38.8726 0 34.0413 2.46742 30.844 6.33214C33.3375 9.34636 34.8378 13.2104 34.8378 17.4186C34.8378 12.2185 39.0687 7.98752 44.2695 7.98752H44.2682Z" fill="white"/>
<path d="M44.2681 26.8504C39.0674 26.8504 34.8364 22.6195 34.8364 17.4187C34.8364 23.5495 31.6501 28.9464 26.8489 32.0518V43.9367H34.8364V32.0518C37.5567 33.8115 40.7938 34.838 44.2681 34.838C49.6644 34.838 54.4956 32.3705 57.693 28.5058C55.1995 25.4916 53.6992 21.6275 53.6992 17.4194C53.6992 22.6201 49.4682 26.8511 44.2675 26.8511L44.2681 26.8504Z" fill="white"/>
<path d="M71.1184 7.98752C73.6022 7.98752 75.9471 8.9449 77.7204 10.683L83.3115 4.97916C80.036 1.76878 75.7059 0 71.1184 0C65.7222 0 60.891 2.46742 57.6936 6.33214C60.1871 9.34636 61.6874 13.2104 61.6874 17.4186C61.6874 12.2185 65.9184 7.98752 71.1191 7.98752H71.1184Z" fill="white"/>
<path d="M73.1505 13.4248V21.4123H79.6625C78.1564 24.6221 74.8932 26.8503 71.1191 26.8503C65.9184 26.8503 61.6874 22.6193 61.6874 17.4186C61.6874 21.6267 60.1871 25.4908 57.6936 28.505C60.891 32.3704 65.7222 34.8372 71.1184 34.8372C80.7229 34.8372 88.5371 27.023 88.5371 17.4186V13.4248H73.1505Z" fill="white"/>
</svg>
