<svg width="130" height="36" viewBox="0 0 130 36" fill="none" xmlns="http://www.w3.org/2000/svg">
<rect width="130" height="36" rx="4" fill="#091C2A"/>
<rect x="0.5" y="0.5" width="129" height="35" rx="3.5" stroke="white" stroke-opacity="0.4"/>
<path d="M24.7656 14.8187C24.6496 14.9087 22.6011 16.0628 22.6011 18.6291C22.6011 21.5974 25.2077 22.6475 25.2857 22.6735C25.2737 22.7375 24.8716 24.1116 23.9114 25.5118C23.0552 26.7439 22.161 27.974 20.8007 27.974C19.4404 27.974 19.0903 27.1839 17.5199 27.1839C15.9896 27.1839 15.4455 28 14.2012 28C12.9569 28 12.0887 26.8599 11.0905 25.4597C9.93421 23.8156 9 21.2613 9 18.8371C9 14.9487 11.5286 12.8865 14.0171 12.8865C15.3394 12.8865 16.4417 13.7546 17.2719 13.7546C18.0621 13.7546 19.2943 12.8345 20.7987 12.8345C21.3688 12.8345 23.4173 12.8865 24.7656 14.8187ZM20.0845 11.1883C20.7067 10.4502 21.1468 9.42614 21.1468 8.40204C21.1468 8.26003 21.1348 8.11601 21.1088 8C20.0965 8.038 18.8923 8.67407 18.1661 9.51615C17.596 10.1642 17.0638 11.1883 17.0638 12.2264C17.0638 12.3824 17.0898 12.5385 17.1018 12.5885C17.1659 12.6005 17.2699 12.6145 17.3739 12.6145C18.2821 12.6145 19.4244 12.0064 20.0845 11.1883Z" fill="white"/>
<path d="M31.93 28L36.34 18.2H38.132L42.556 28H40.652L36.858 19.166H37.586L33.806 28H31.93ZM33.96 25.732L34.45 24.304H39.742L40.232 25.732H33.96ZM47.7783 28.098C47.1717 28.098 46.6163 27.958 46.1123 27.678C45.6177 27.398 45.221 26.978 44.9223 26.418C44.633 25.8487 44.4883 25.13 44.4883 24.262C44.4883 23.3847 44.6283 22.666 44.9083 22.106C45.1977 21.546 45.5897 21.1307 46.0843 20.86C46.579 20.58 47.1437 20.44 47.7783 20.44C48.5157 20.44 49.1643 20.5987 49.7243 20.916C50.2937 21.2333 50.7417 21.6767 51.0683 22.246C51.4043 22.8153 51.5723 23.4873 51.5723 24.262C51.5723 25.0367 51.4043 25.7133 51.0683 26.292C50.7417 26.8613 50.2937 27.3047 49.7243 27.622C49.1643 27.9393 48.5157 28.098 47.7783 28.098ZM43.6343 30.716V20.524H45.3003V22.288L45.2443 24.276L45.3843 26.264V30.716H43.6343ZM47.5823 26.6C48.0023 26.6 48.3757 26.5067 48.7023 26.32C49.0383 26.1333 49.3043 25.8627 49.5003 25.508C49.6963 25.1533 49.7943 24.738 49.7943 24.262C49.7943 23.7767 49.6963 23.3613 49.5003 23.016C49.3043 22.6613 49.0383 22.3907 48.7023 22.204C48.3757 22.0173 48.0023 21.924 47.5823 21.924C47.1623 21.924 46.7843 22.0173 46.4483 22.204C46.1123 22.3907 45.8463 22.6613 45.6503 23.016C45.4543 23.3613 45.3563 23.7767 45.3563 24.262C45.3563 24.738 45.4543 25.1533 45.6503 25.508C45.8463 25.8627 46.1123 26.1333 46.4483 26.32C46.7843 26.5067 47.1623 26.6 47.5823 26.6ZM57.376 28.098C56.7693 28.098 56.214 27.958 55.71 27.678C55.2153 27.398 54.8187 26.978 54.52 26.418C54.2307 25.8487 54.086 25.13 54.086 24.262C54.086 23.3847 54.226 22.666 54.506 22.106C54.7953 21.546 55.1873 21.1307 55.682 20.86C56.1767 20.58 56.7413 20.44 57.376 20.44C58.1133 20.44 58.762 20.5987 59.322 20.916C59.8913 21.2333 60.3393 21.6767 60.666 22.246C61.002 22.8153 61.17 23.4873 61.17 24.262C61.17 25.0367 61.002 25.7133 60.666 26.292C60.3393 26.8613 59.8913 27.3047 59.322 27.622C58.762 27.9393 58.1133 28.098 57.376 28.098ZM53.232 30.716V20.524H54.898V22.288L54.842 24.276L54.982 26.264V30.716H53.232ZM57.18 26.6C57.6 26.6 57.9733 26.5067 58.3 26.32C58.636 26.1333 58.902 25.8627 59.098 25.508C59.294 25.1533 59.392 24.738 59.392 24.262C59.392 23.7767 59.294 23.3613 59.098 23.016C58.902 22.6613 58.636 22.3907 58.3 22.204C57.9733 22.0173 57.6 21.924 57.18 21.924C56.76 21.924 56.382 22.0173 56.046 22.204C55.71 22.3907 55.444 22.6613 55.248 23.016C55.052 23.3613 54.954 23.7767 54.954 24.262C54.954 24.738 55.052 25.1533 55.248 25.508C55.444 25.8627 55.71 26.1333 56.046 26.32C56.382 26.5067 56.76 26.6 57.18 26.6ZM69.9048 28.14C69.1394 28.14 68.4068 28.0327 67.7068 27.818C67.0068 27.594 66.4514 27.3093 66.0408 26.964L66.6708 25.55C67.0628 25.858 67.5481 26.1147 68.1268 26.32C68.7054 26.5253 69.2981 26.628 69.9048 26.628C70.4181 26.628 70.8334 26.572 71.1508 26.46C71.4681 26.348 71.7014 26.1987 71.8508 26.012C72.0001 25.816 72.0748 25.5967 72.0748 25.354C72.0748 25.0553 71.9674 24.8173 71.7528 24.64C71.5381 24.4533 71.2581 24.3087 70.9128 24.206C70.5768 24.094 70.1988 23.9913 69.7788 23.898C69.3681 23.8047 68.9528 23.6973 68.5328 23.576C68.1221 23.4453 67.7441 23.282 67.3988 23.086C67.0628 22.8807 66.7874 22.61 66.5728 22.274C66.3581 21.938 66.2508 21.5087 66.2508 20.986C66.2508 20.454 66.3908 19.9687 66.6708 19.53C66.9601 19.082 67.3941 18.7273 67.9728 18.466C68.5608 18.1953 69.3028 18.06 70.1988 18.06C70.7868 18.06 71.3701 18.1347 71.9488 18.284C72.5274 18.4333 73.0314 18.648 73.4608 18.928L72.8868 20.342C72.4481 20.0807 71.9954 19.8893 71.5288 19.768C71.0621 19.6373 70.6141 19.572 70.1848 19.572C69.6808 19.572 69.2701 19.6327 68.9528 19.754C68.6448 19.8753 68.4161 20.034 68.2668 20.23C68.1268 20.426 68.0568 20.65 68.0568 20.902C68.0568 21.2007 68.1594 21.4433 68.3648 21.63C68.5794 21.8073 68.8548 21.9473 69.1908 22.05C69.5361 22.1527 69.9188 22.2553 70.3388 22.358C70.7588 22.4513 71.1741 22.5587 71.5848 22.68C72.0048 22.8013 72.3828 22.96 72.7188 23.156C73.0641 23.352 73.3394 23.618 73.5448 23.954C73.7594 24.29 73.8668 24.7147 73.8668 25.228C73.8668 25.7507 73.7221 26.236 73.4328 26.684C73.1528 27.1227 72.7188 27.4773 72.1308 27.748C71.5428 28.0093 70.8008 28.14 69.9048 28.14ZM78.3175 28.098C77.4961 28.098 76.8615 27.888 76.4135 27.468C75.9655 27.0387 75.7415 26.4087 75.7415 25.578V18.872H77.4915V25.536C77.4915 25.8907 77.5801 26.166 77.7575 26.362C77.9441 26.558 78.2008 26.656 78.5275 26.656C78.9195 26.656 79.2461 26.5533 79.5075 26.348L79.9975 27.594C79.7921 27.762 79.5401 27.888 79.2415 27.972C78.9428 28.056 78.6348 28.098 78.3175 28.098ZM74.5095 21.98V20.58H79.4935V21.98H74.5095ZM84.551 28.098C83.7856 28.098 83.1043 27.9347 82.507 27.608C81.9096 27.272 81.4383 26.8147 81.093 26.236C80.7476 25.6573 80.575 24.9993 80.575 24.262C80.575 23.5153 80.7476 22.8573 81.093 22.288C81.4383 21.7093 81.9096 21.2567 82.507 20.93C83.1043 20.6033 83.7856 20.44 84.551 20.44C85.3256 20.44 86.0116 20.6033 86.609 20.93C87.2156 21.2567 87.687 21.7047 88.023 22.274C88.3683 22.8433 88.541 23.506 88.541 24.262C88.541 24.9993 88.3683 25.6573 88.023 26.236C87.687 26.8147 87.2156 27.272 86.609 27.608C86.0116 27.9347 85.3256 28.098 84.551 28.098ZM84.551 26.6C84.9803 26.6 85.363 26.5067 85.699 26.32C86.035 26.1333 86.2963 25.8627 86.483 25.508C86.679 25.1533 86.777 24.738 86.777 24.262C86.777 23.7767 86.679 23.3613 86.483 23.016C86.2963 22.6613 86.035 22.3907 85.699 22.204C85.363 22.0173 84.985 21.924 84.565 21.924C84.1356 21.924 83.753 22.0173 83.417 22.204C83.0903 22.3907 82.829 22.6613 82.633 23.016C82.437 23.3613 82.339 23.7767 82.339 24.262C82.339 24.738 82.437 25.1533 82.633 25.508C82.829 25.8627 83.0903 26.1333 83.417 26.32C83.753 26.5067 84.131 26.6 84.551 26.6ZM90.2144 28V20.524H91.8804V22.582L91.6844 21.98C91.9084 21.476 92.2584 21.0933 92.7344 20.832C93.2197 20.5707 93.8217 20.44 94.5404 20.44V22.106C94.4657 22.0873 94.3957 22.078 94.3304 22.078C94.2651 22.0687 94.1997 22.064 94.1344 22.064C93.4717 22.064 92.9444 22.26 92.5524 22.652C92.1604 23.0347 91.9644 23.6087 91.9644 24.374V28H90.2144ZM99.4706 28.098C98.6399 28.098 97.9119 27.9347 97.2866 27.608C96.6706 27.272 96.1899 26.8147 95.8446 26.236C95.5086 25.6573 95.3406 24.9993 95.3406 24.262C95.3406 23.5153 95.5039 22.8573 95.8306 22.288C96.1666 21.7093 96.6239 21.2567 97.2026 20.93C97.7906 20.6033 98.4579 20.44 99.2046 20.44C99.9326 20.44 100.581 20.5987 101.151 20.916C101.72 21.2333 102.168 21.6813 102.495 22.26C102.821 22.8387 102.985 23.52 102.985 24.304C102.985 24.3787 102.98 24.4627 102.971 24.556C102.971 24.6493 102.966 24.738 102.957 24.822H96.7266V23.66H102.033L101.347 24.024C101.356 23.5947 101.267 23.2167 101.081 22.89C100.894 22.5633 100.637 22.3067 100.311 22.12C99.9933 21.9333 99.6246 21.84 99.2046 21.84C98.7753 21.84 98.3973 21.9333 98.0706 22.12C97.7533 22.3067 97.5013 22.568 97.3146 22.904C97.1373 23.2307 97.0486 23.618 97.0486 24.066V24.346C97.0486 24.794 97.1513 25.1907 97.3566 25.536C97.5619 25.8813 97.8513 26.1473 98.2246 26.334C98.5979 26.5207 99.0273 26.614 99.5126 26.614C99.9326 26.614 100.311 26.5487 100.647 26.418C100.983 26.2873 101.281 26.082 101.543 25.802L102.481 26.88C102.145 27.272 101.72 27.5753 101.207 27.79C100.703 27.9953 100.124 28.098 99.4706 28.098Z" fill="white"/>
<path d="M31.752 14V8.4H34.2C34.808 8.4 35.3413 8.51733 35.8 8.752C36.2587 8.98667 36.616 9.312 36.872 9.728C37.128 10.144 37.256 10.6347 37.256 11.2C37.256 11.76 37.128 12.2507 36.872 12.672C36.616 13.088 36.2587 13.4133 35.8 13.648C35.3413 13.8827 34.808 14 34.2 14H31.752ZM32.792 13.12H34.152C34.5733 13.12 34.936 13.04 35.24 12.88C35.5493 12.72 35.7867 12.496 35.952 12.208C36.1227 11.92 36.208 11.584 36.208 11.2C36.208 10.8107 36.1227 10.4747 35.952 10.192C35.7867 9.904 35.5493 9.68 35.24 9.52C34.936 9.36 34.5733 9.28 34.152 9.28H32.792V13.12ZM40.1854 14.056C39.748 14.056 39.3587 13.9627 39.0174 13.776C38.676 13.584 38.4067 13.3227 38.2094 12.992C38.012 12.6613 37.9134 12.2853 37.9134 11.864C37.9134 11.4373 38.012 11.0613 38.2094 10.736C38.4067 10.4053 38.676 10.1467 39.0174 9.96C39.3587 9.77333 39.748 9.68 40.1854 9.68C40.628 9.68 41.02 9.77333 41.3614 9.96C41.708 10.1467 41.9774 10.4027 42.1694 10.728C42.3667 11.0533 42.4654 11.432 42.4654 11.864C42.4654 12.2853 42.3667 12.6613 42.1694 12.992C41.9774 13.3227 41.708 13.584 41.3614 13.776C41.02 13.9627 40.628 14.056 40.1854 14.056ZM40.1854 13.2C40.4307 13.2 40.6494 13.1467 40.8414 13.04C41.0334 12.9333 41.1827 12.7787 41.2894 12.576C41.4014 12.3733 41.4574 12.136 41.4574 11.864C41.4574 11.5867 41.4014 11.3493 41.2894 11.152C41.1827 10.9493 41.0334 10.7947 40.8414 10.688C40.6494 10.5813 40.4334 10.528 40.1934 10.528C39.948 10.528 39.7294 10.5813 39.5374 10.688C39.3507 10.7947 39.2014 10.9493 39.0894 11.152C38.9774 11.3493 38.9214 11.5867 38.9214 11.864C38.9214 12.136 38.9774 12.3733 39.0894 12.576C39.2014 12.7787 39.3507 12.9333 39.5374 13.04C39.7294 13.1467 39.9454 13.2 40.1854 13.2ZM44.2484 14L42.6804 9.728H43.6244L44.9684 13.496H44.5204L45.9284 9.728H46.7684L48.1364 13.496H47.6964L49.0804 9.728H49.9684L48.3924 14H47.4324L46.1844 10.664H46.4804L45.2084 14H44.2484ZM53.08 9.68C53.4213 9.68 53.7253 9.74667 53.992 9.88C54.264 10.0133 54.4773 10.2187 54.632 10.496C54.7867 10.768 54.864 11.12 54.864 11.552V14H53.864V11.68C53.864 11.3013 53.7733 11.0187 53.592 10.832C53.416 10.6453 53.168 10.552 52.848 10.552C52.6133 10.552 52.4053 10.6 52.224 10.696C52.0427 10.792 51.9013 10.936 51.8 11.128C51.704 11.3147 51.656 11.552 51.656 11.84V14H50.656V9.728H51.608V10.88L51.44 10.528C51.5893 10.256 51.8053 10.048 52.088 9.904C52.376 9.75467 52.7067 9.68 53.08 9.68ZM56.1326 14V8.064H57.1326V14H56.1326ZM60.3651 14.056C59.9277 14.056 59.5384 13.9627 59.1971 13.776C58.8557 13.584 58.5864 13.3227 58.3891 12.992C58.1917 12.6613 58.0931 12.2853 58.0931 11.864C58.0931 11.4373 58.1917 11.0613 58.3891 10.736C58.5864 10.4053 58.8557 10.1467 59.1971 9.96C59.5384 9.77333 59.9277 9.68 60.3651 9.68C60.8077 9.68 61.1997 9.77333 61.5411 9.96C61.8877 10.1467 62.1571 10.4027 62.3491 10.728C62.5464 11.0533 62.6451 11.432 62.6451 11.864C62.6451 12.2853 62.5464 12.6613 62.3491 12.992C62.1571 13.3227 61.8877 13.584 61.5411 13.776C61.1997 13.9627 60.8077 14.056 60.3651 14.056ZM60.3651 13.2C60.6104 13.2 60.8291 13.1467 61.0211 13.04C61.2131 12.9333 61.3624 12.7787 61.4691 12.576C61.5811 12.3733 61.6371 12.136 61.6371 11.864C61.6371 11.5867 61.5811 11.3493 61.4691 11.152C61.3624 10.9493 61.2131 10.7947 61.0211 10.688C60.8291 10.5813 60.6131 10.528 60.3731 10.528C60.1277 10.528 59.9091 10.5813 59.7171 10.688C59.5304 10.7947 59.3811 10.9493 59.2691 11.152C59.1571 11.3493 59.1011 11.5867 59.1011 11.864C59.1011 12.136 59.1571 12.3733 59.2691 12.576C59.3811 12.7787 59.5304 12.9333 59.7171 13.04C59.9091 13.1467 60.1251 13.2 60.3651 13.2ZM66.1786 14V13.136L66.1226 12.952V11.44C66.1226 11.1467 66.0346 10.92 65.8586 10.76C65.6826 10.5947 65.416 10.512 65.0586 10.512C64.8186 10.512 64.5813 10.5493 64.3466 10.624C64.1173 10.6987 63.9226 10.8027 63.7626 10.936L63.3706 10.208C63.6 10.032 63.872 9.90133 64.1866 9.816C64.5066 9.72533 64.8373 9.68 65.1786 9.68C65.7973 9.68 66.2746 9.82933 66.6106 10.128C66.952 10.4213 67.1226 10.8773 67.1226 11.496V14H66.1786ZM64.8346 14.056C64.5146 14.056 64.2346 14.0027 63.9946 13.896C63.7546 13.784 63.568 13.632 63.4346 13.44C63.3066 13.2427 63.2426 13.0213 63.2426 12.776C63.2426 12.536 63.2986 12.32 63.4106 12.128C63.528 11.936 63.7173 11.784 63.9786 11.672C64.24 11.56 64.5866 11.504 65.0186 11.504H66.2586V12.168H65.0906C64.7493 12.168 64.52 12.224 64.4026 12.336C64.2853 12.4427 64.2266 12.576 64.2266 12.736C64.2266 12.9173 64.2986 13.0613 64.4426 13.168C64.5866 13.2747 64.7866 13.328 65.0426 13.328C65.288 13.328 65.5066 13.272 65.6986 13.16C65.896 13.048 66.0373 12.8827 66.1226 12.664L66.2906 13.264C66.1946 13.5147 66.0213 13.7093 65.7706 13.848C65.5253 13.9867 65.2133 14.056 64.8346 14.056ZM70.2218 14.056C69.8111 14.056 69.4405 13.9653 69.1098 13.784C68.7845 13.5973 68.5285 13.3413 68.3418 13.016C68.1551 12.6907 68.0618 12.3067 68.0618 11.864C68.0618 11.4213 68.1551 11.0373 68.3418 10.712C68.5285 10.3867 68.7845 10.1333 69.1098 9.952C69.4405 9.77067 69.8111 9.68 70.2218 9.68C70.5791 9.68 70.8991 9.76 71.1818 9.92C71.4645 10.0747 71.6885 10.312 71.8538 10.632C72.0191 10.952 72.1018 11.3627 72.1018 11.864C72.1018 12.36 72.0218 12.7707 71.8618 13.096C71.7018 13.416 71.4805 13.656 71.1978 13.816C70.9151 13.976 70.5898 14.056 70.2218 14.056ZM70.3418 13.2C70.5818 13.2 70.7951 13.1467 70.9818 13.04C71.1738 12.9333 71.3258 12.7787 71.4378 12.576C71.5551 12.3733 71.6138 12.136 71.6138 11.864C71.6138 11.5867 71.5551 11.3493 71.4378 11.152C71.3258 10.9493 71.1738 10.7947 70.9818 10.688C70.7951 10.5813 70.5818 10.528 70.3418 10.528C70.1018 10.528 69.8858 10.5813 69.6938 10.688C69.5071 10.7947 69.3551 10.9493 69.2378 11.152C69.1258 11.3493 69.0698 11.5867 69.0698 11.864C69.0698 12.136 69.1258 12.3733 69.2378 12.576C69.3551 12.7787 69.5071 12.9333 69.6938 13.04C69.8858 13.1467 70.1018 13.2 70.3418 13.2ZM71.6378 14V12.992L71.6778 11.856L71.5978 10.72V8.064H72.5898V14H71.6378ZM78.0369 14.056C77.5996 14.056 77.2103 13.9627 76.8689 13.776C76.5276 13.584 76.2583 13.3227 76.0609 12.992C75.8636 12.6613 75.7649 12.2853 75.7649 11.864C75.7649 11.4373 75.8636 11.0613 76.0609 10.736C76.2583 10.4053 76.5276 10.1467 76.8689 9.96C77.2103 9.77333 77.5996 9.68 78.0369 9.68C78.4796 9.68 78.8716 9.77333 79.2129 9.96C79.5596 10.1467 79.8289 10.4027 80.0209 10.728C80.2183 11.0533 80.3169 11.432 80.3169 11.864C80.3169 12.2853 80.2183 12.6613 80.0209 12.992C79.8289 13.3227 79.5596 13.584 79.2129 13.776C78.8716 13.9627 78.4796 14.056 78.0369 14.056ZM78.0369 13.2C78.2823 13.2 78.5009 13.1467 78.6929 13.04C78.8849 12.9333 79.0343 12.7787 79.1409 12.576C79.2529 12.3733 79.3089 12.136 79.3089 11.864C79.3089 11.5867 79.2529 11.3493 79.1409 11.152C79.0343 10.9493 78.8849 10.7947 78.6929 10.688C78.5009 10.5813 78.2849 10.528 78.0449 10.528C77.7996 10.528 77.5809 10.5813 77.3889 10.688C77.2023 10.7947 77.0529 10.9493 76.9409 11.152C76.8289 11.3493 76.7729 11.5867 76.7729 11.864C76.7729 12.136 76.8289 12.3733 76.9409 12.576C77.0529 12.7787 77.2023 12.9333 77.3889 13.04C77.5809 13.1467 77.7969 13.2 78.0369 13.2ZM83.6972 9.68C84.0385 9.68 84.3425 9.74667 84.6092 9.88C84.8812 10.0133 85.0945 10.2187 85.2492 10.496C85.4039 10.768 85.4812 11.12 85.4812 11.552V14H84.4812V11.68C84.4812 11.3013 84.3905 11.0187 84.2092 10.832C84.0332 10.6453 83.7852 10.552 83.4652 10.552C83.2305 10.552 83.0225 10.6 82.8412 10.696C82.6599 10.792 82.5185 10.936 82.4172 11.128C82.3212 11.3147 82.2732 11.552 82.2732 11.84V14H81.2732V9.728H82.2252V10.88L82.0572 10.528C82.2065 10.256 82.4225 10.048 82.7052 9.904C82.9932 9.75467 83.3239 9.68 83.6972 9.68ZM90.5687 14.056C90.0994 14.056 89.7367 13.936 89.4807 13.696C89.2247 13.4507 89.0967 13.0907 89.0967 12.616V8.784H90.0967V12.592C90.0967 12.7947 90.1474 12.952 90.2487 13.064C90.3554 13.176 90.502 13.232 90.6887 13.232C90.9127 13.232 91.0994 13.1733 91.2487 13.056L91.5287 13.768C91.4114 13.864 91.2674 13.936 91.0967 13.984C90.926 14.032 90.75 14.056 90.5687 14.056ZM88.3927 10.56V9.76H91.2407V10.56H88.3927ZM94.7753 9.68C95.1166 9.68 95.4206 9.74667 95.6873 9.88C95.9593 10.0133 96.1726 10.2187 96.3273 10.496C96.482 10.768 96.5593 11.12 96.5593 11.552V14H95.5593V11.68C95.5593 11.3013 95.4686 11.0187 95.2873 10.832C95.1113 10.6453 94.8633 10.552 94.5433 10.552C94.3086 10.552 94.1006 10.6 93.9193 10.696C93.738 10.792 93.5966 10.936 93.4953 11.128C93.3993 11.3147 93.3513 11.552 93.3513 11.84V14H92.3513V8.064H93.3513V10.88L93.1353 10.528C93.2846 10.256 93.5006 10.048 93.7833 9.904C94.0713 9.75467 94.402 9.68 94.7753 9.68ZM99.8437 14.056C99.369 14.056 98.953 13.9627 98.5957 13.776C98.2437 13.584 97.969 13.3227 97.7717 12.992C97.5797 12.6613 97.4837 12.2853 97.4837 11.864C97.4837 11.4373 97.577 11.0613 97.7637 10.736C97.9557 10.4053 98.217 10.1467 98.5477 9.96C98.8837 9.77333 99.265 9.68 99.6917 9.68C100.108 9.68 100.478 9.77067 100.804 9.952C101.129 10.1333 101.385 10.3893 101.572 10.72C101.758 11.0507 101.852 11.44 101.852 11.888C101.852 11.9307 101.849 11.9787 101.844 12.032C101.844 12.0853 101.841 12.136 101.836 12.184H98.2757V11.52H101.308L100.916 11.728C100.921 11.4827 100.87 11.2667 100.764 11.08C100.657 10.8933 100.51 10.7467 100.324 10.64C100.142 10.5333 99.9317 10.48 99.6917 10.48C99.4464 10.48 99.2304 10.5333 99.0437 10.64C98.8624 10.7467 98.7184 10.896 98.6117 11.088C98.5104 11.2747 98.4597 11.496 98.4597 11.752V11.912C98.4597 12.168 98.5184 12.3947 98.6357 12.592C98.753 12.7893 98.9184 12.9413 99.1317 13.048C99.345 13.1547 99.5904 13.208 99.8677 13.208C100.108 13.208 100.324 13.1707 100.516 13.096C100.708 13.0213 100.878 12.904 101.028 12.744L101.564 13.36C101.372 13.584 101.129 13.7573 100.836 13.88C100.548 13.9973 100.217 14.056 99.8437 14.056Z" fill="white"/>
</svg>
