<svg width="130" height="36" viewBox="0 0 130 36" fill="none" xmlns="http://www.w3.org/2000/svg">
<rect width="130" height="36" rx="4" fill="#091C2A"/>
<rect x="0.5" y="0.5" width="129" height="35" rx="3.5" stroke="white" stroke-opacity="0.4"/>
<path d="M40.894 28.14C40.1287 28.14 39.424 28.0187 38.78 27.776C38.1453 27.524 37.59 27.174 37.114 26.726C36.638 26.2687 36.2693 25.732 36.008 25.116C35.7467 24.5 35.616 23.828 35.616 23.1C35.616 22.372 35.7467 21.7 36.008 21.084C36.2693 20.468 36.638 19.936 37.114 19.488C37.5993 19.0307 38.164 18.6807 38.808 18.438C39.452 18.186 40.1567 18.06 40.922 18.06C41.7527 18.06 42.4993 18.1953 43.162 18.466C43.834 18.7367 44.3987 19.1333 44.856 19.656L43.708 20.776C43.3253 20.3933 42.91 20.1133 42.462 19.936C42.0233 19.7493 41.538 19.656 41.006 19.656C40.4927 19.656 40.0167 19.74 39.578 19.908C39.1393 20.076 38.7613 20.314 38.444 20.622C38.1267 20.93 37.8793 21.294 37.702 21.714C37.534 22.134 37.45 22.596 37.45 23.1C37.45 23.5947 37.534 24.052 37.702 24.472C37.8793 24.892 38.1267 25.2607 38.444 25.578C38.7613 25.886 39.1347 26.124 39.564 26.292C39.9933 26.46 40.4693 26.544 40.992 26.544C41.4773 26.544 41.944 26.4693 42.392 26.32C42.8493 26.1613 43.2833 25.9 43.694 25.536L44.73 26.894C44.2167 27.3047 43.6193 27.6173 42.938 27.832C42.266 28.0373 41.5847 28.14 40.894 28.14ZM43.008 26.656V22.988H44.73V26.894L43.008 26.656ZM50.3225 28.098C49.5571 28.098 48.8758 27.9347 48.2785 27.608C47.6811 27.272 47.2098 26.8147 46.8645 26.236C46.5191 25.6573 46.3465 24.9993 46.3465 24.262C46.3465 23.5153 46.5191 22.8573 46.8645 22.288C47.2098 21.7093 47.6811 21.2567 48.2785 20.93C48.8758 20.6033 49.5571 20.44 50.3225 20.44C51.0971 20.44 51.7831 20.6033 52.3805 20.93C52.9871 21.2567 53.4585 21.7047 53.7945 22.274C54.1398 22.8433 54.3125 23.506 54.3125 24.262C54.3125 24.9993 54.1398 25.6573 53.7945 26.236C53.4585 26.8147 52.9871 27.272 52.3805 27.608C51.7831 27.9347 51.0971 28.098 50.3225 28.098ZM50.3225 26.6C50.7518 26.6 51.1345 26.5067 51.4705 26.32C51.8065 26.1333 52.0678 25.8627 52.2545 25.508C52.4505 25.1533 52.5485 24.738 52.5485 24.262C52.5485 23.7767 52.4505 23.3613 52.2545 23.016C52.0678 22.6613 51.8065 22.3907 51.4705 22.204C51.1345 22.0173 50.7565 21.924 50.3365 21.924C49.9071 21.924 49.5245 22.0173 49.1885 22.204C48.8618 22.3907 48.6005 22.6613 48.4045 23.016C48.2085 23.3613 48.1105 23.7767 48.1105 24.262C48.1105 24.738 48.2085 25.1533 48.4045 25.508C48.6005 25.8627 48.8618 26.1333 49.1885 26.32C49.5245 26.5067 49.9025 26.6 50.3225 26.6ZM59.3459 28.098C58.5806 28.098 57.8992 27.9347 57.3019 27.608C56.7046 27.272 56.2332 26.8147 55.8879 26.236C55.5426 25.6573 55.3699 24.9993 55.3699 24.262C55.3699 23.5153 55.5426 22.8573 55.8879 22.288C56.2332 21.7093 56.7046 21.2567 57.3019 20.93C57.8992 20.6033 58.5806 20.44 59.3459 20.44C60.1206 20.44 60.8066 20.6033 61.4039 20.93C62.0106 21.2567 62.4819 21.7047 62.8179 22.274C63.1632 22.8433 63.3359 23.506 63.3359 24.262C63.3359 24.9993 63.1632 25.6573 62.8179 26.236C62.4819 26.8147 62.0106 27.272 61.4039 27.608C60.8066 27.9347 60.1206 28.098 59.3459 28.098ZM59.3459 26.6C59.7752 26.6 60.1579 26.5067 60.4939 26.32C60.8299 26.1333 61.0912 25.8627 61.2779 25.508C61.4739 25.1533 61.5719 24.738 61.5719 24.262C61.5719 23.7767 61.4739 23.3613 61.2779 23.016C61.0912 22.6613 60.8299 22.3907 60.4939 22.204C60.1579 22.0173 59.7799 21.924 59.3599 21.924C58.9306 21.924 58.5479 22.0173 58.2119 22.204C57.8852 22.3907 57.6239 22.6613 57.4279 23.016C57.2319 23.3613 57.1339 23.7767 57.1339 24.262C57.1339 24.738 57.2319 25.1533 57.4279 25.508C57.6239 25.8627 57.8852 26.1333 58.2119 26.32C58.5479 26.5067 58.9259 26.6 59.3459 26.6ZM68.3973 30.814C67.7067 30.814 67.03 30.7207 66.3673 30.534C65.714 30.3567 65.1773 30.0953 64.7573 29.75L65.5413 28.434C65.868 28.7047 66.2787 28.9193 66.7733 29.078C67.2773 29.246 67.786 29.33 68.2993 29.33C69.1207 29.33 69.7227 29.1387 70.1053 28.756C70.488 28.3827 70.6793 27.818 70.6793 27.062V25.732L70.8193 24.038L70.7633 22.344V20.524H72.4293V26.866C72.4293 28.2193 72.084 29.2133 71.3933 29.848C70.7027 30.492 69.704 30.814 68.3973 30.814ZM68.1733 27.664C67.464 27.664 66.82 27.5147 66.2413 27.216C65.672 26.908 65.2193 26.4833 64.8833 25.942C64.5567 25.4007 64.3933 24.766 64.3933 24.038C64.3933 23.3193 64.5567 22.6893 64.8833 22.148C65.2193 21.6067 65.672 21.1867 66.2413 20.888C66.82 20.5893 67.464 20.44 68.1733 20.44C68.808 20.44 69.3773 20.566 69.8813 20.818C70.3853 21.07 70.7867 21.462 71.0853 21.994C71.3933 22.526 71.5473 23.2073 71.5473 24.038C71.5473 24.8687 71.3933 25.5547 71.0853 26.096C70.7867 26.628 70.3853 27.0247 69.8813 27.286C69.3773 27.538 68.808 27.664 68.1733 27.664ZM68.4393 26.18C68.878 26.18 69.27 26.0913 69.6153 25.914C69.9607 25.7273 70.2267 25.4753 70.4133 25.158C70.6093 24.8313 70.7073 24.458 70.7073 24.038C70.7073 23.618 70.6093 23.2493 70.4133 22.932C70.2267 22.6053 69.9607 22.358 69.6153 22.19C69.27 22.0127 68.878 21.924 68.4393 21.924C68.0007 21.924 67.604 22.0127 67.2493 22.19C66.904 22.358 66.6333 22.6053 66.4373 22.932C66.2507 23.2493 66.1573 23.618 66.1573 24.038C66.1573 24.458 66.2507 24.8313 66.4373 25.158C66.6333 25.4753 66.904 25.7273 67.2493 25.914C67.604 26.0913 68.0007 26.18 68.4393 26.18ZM74.73 28V17.612H76.48V28H74.73ZM82.2909 28.098C81.4602 28.098 80.7322 27.9347 80.1069 27.608C79.4909 27.272 79.0102 26.8147 78.6649 26.236C78.3289 25.6573 78.1609 24.9993 78.1609 24.262C78.1609 23.5153 78.3242 22.8573 78.6509 22.288C78.9869 21.7093 79.4442 21.2567 80.0229 20.93C80.6109 20.6033 81.2782 20.44 82.0249 20.44C82.7529 20.44 83.4016 20.5987 83.9709 20.916C84.5402 21.2333 84.9882 21.6813 85.3149 22.26C85.6416 22.8387 85.8049 23.52 85.8049 24.304C85.8049 24.3787 85.8002 24.4627 85.7909 24.556C85.7909 24.6493 85.7862 24.738 85.7769 24.822H79.5469V23.66H84.8529L84.1669 24.024C84.1762 23.5947 84.0876 23.2167 83.9009 22.89C83.7142 22.5633 83.4576 22.3067 83.1309 22.12C82.8136 21.9333 82.4449 21.84 82.0249 21.84C81.5956 21.84 81.2176 21.9333 80.8909 22.12C80.5736 22.3067 80.3216 22.568 80.1349 22.904C79.9576 23.2307 79.8689 23.618 79.8689 24.066V24.346C79.8689 24.794 79.9716 25.1907 80.1769 25.536C80.3822 25.8813 80.6716 26.1473 81.0449 26.334C81.4182 26.5207 81.8476 26.614 82.3329 26.614C82.7529 26.614 83.1309 26.5487 83.4669 26.418C83.8029 26.2873 84.1016 26.082 84.3629 25.802L85.3009 26.88C84.9649 27.272 84.5402 27.5753 84.0269 27.79C83.5229 27.9953 82.9442 28.098 82.2909 28.098ZM91.523 28V18.2H95.555C96.423 18.2 97.165 18.34 97.781 18.62C98.4064 18.9 98.887 19.3013 99.223 19.824C99.559 20.3467 99.727 20.9673 99.727 21.686C99.727 22.4047 99.559 23.0253 99.223 23.548C98.887 24.0707 98.4064 24.472 97.781 24.752C97.165 25.032 96.423 25.172 95.555 25.172H92.531L93.343 24.318V28H91.523ZM93.343 24.514L92.531 23.632H95.471C96.2737 23.632 96.8757 23.464 97.277 23.128C97.6877 22.7827 97.893 22.302 97.893 21.686C97.893 21.0607 97.6877 20.58 97.277 20.244C96.8757 19.908 96.2737 19.74 95.471 19.74H92.531L93.343 18.844V24.514ZM101.513 28V17.612H103.263V28H101.513ZM110.166 28V26.488L110.068 26.166V23.52C110.068 23.0067 109.914 22.61 109.606 22.33C109.298 22.0407 108.831 21.896 108.206 21.896C107.786 21.896 107.371 21.9613 106.96 22.092C106.559 22.2227 106.218 22.4047 105.938 22.638L105.252 21.364C105.653 21.056 106.129 20.8273 106.68 20.678C107.24 20.5193 107.819 20.44 108.416 20.44C109.499 20.44 110.334 20.7013 110.922 21.224C111.519 21.7373 111.818 22.5353 111.818 23.618V28H110.166ZM107.814 28.098C107.254 28.098 106.764 28.0047 106.344 27.818C105.924 27.622 105.597 27.356 105.364 27.02C105.14 26.6747 105.028 26.2873 105.028 25.858C105.028 25.438 105.126 25.06 105.322 24.724C105.527 24.388 105.859 24.122 106.316 23.926C106.773 23.73 107.38 23.632 108.136 23.632H110.306V24.794H108.262C107.665 24.794 107.263 24.892 107.058 25.088C106.853 25.2747 106.75 25.508 106.75 25.788C106.75 26.1053 106.876 26.3573 107.128 26.544C107.38 26.7307 107.73 26.824 108.178 26.824C108.607 26.824 108.99 26.726 109.326 26.53C109.671 26.334 109.919 26.0447 110.068 25.662L110.362 26.712C110.194 27.1507 109.891 27.4913 109.452 27.734C109.023 27.9767 108.477 28.098 107.814 28.098ZM114.543 30.814C114.179 30.814 113.815 30.7533 113.451 30.632C113.087 30.5107 112.784 30.3427 112.541 30.128L113.241 28.84C113.419 28.9987 113.619 29.1247 113.843 29.218C114.067 29.3113 114.296 29.358 114.529 29.358C114.847 29.358 115.103 29.2787 115.299 29.12C115.495 28.9613 115.677 28.6953 115.845 28.322L116.279 27.342L116.419 27.132L119.247 20.524H120.927L117.427 28.602C117.194 29.162 116.933 29.6053 116.643 29.932C116.363 30.2587 116.046 30.4873 115.691 30.618C115.346 30.7487 114.963 30.814 114.543 30.814ZM116.083 28.266L112.709 20.524H114.529L117.273 26.978L116.083 28.266Z" fill="white"/>
<path d="M37.368 14.08C36.9307 14.08 36.528 14.0107 36.16 13.872C35.7973 13.728 35.48 13.528 35.208 13.272C34.936 13.0107 34.7253 12.704 34.576 12.352C34.4267 12 34.352 11.616 34.352 11.2C34.352 10.784 34.4267 10.4 34.576 10.048C34.7253 9.696 34.936 9.392 35.208 9.136C35.4853 8.87467 35.808 8.67467 36.176 8.536C36.544 8.392 36.9467 8.32 37.384 8.32C37.8587 8.32 38.2853 8.39733 38.664 8.552C39.048 8.70667 39.3707 8.93333 39.632 9.232L38.976 9.872C38.7573 9.65333 38.52 9.49333 38.264 9.392C38.0133 9.28533 37.736 9.232 37.432 9.232C37.1387 9.232 36.8667 9.28 36.616 9.376C36.3653 9.472 36.1493 9.608 35.968 9.784C35.7867 9.96 35.6453 10.168 35.544 10.408C35.448 10.648 35.4 10.912 35.4 11.2C35.4 11.4827 35.448 11.744 35.544 11.984C35.6453 12.224 35.7867 12.4347 35.968 12.616C36.1493 12.792 36.3627 12.928 36.608 13.024C36.8533 13.12 37.1253 13.168 37.424 13.168C37.7013 13.168 37.968 13.1253 38.224 13.04C38.4853 12.9493 38.7333 12.8 38.968 12.592L39.56 13.368C39.2667 13.6027 38.9253 13.7813 38.536 13.904C38.152 14.0213 37.7627 14.08 37.368 14.08ZM38.576 13.232V11.136H39.56V13.368L38.576 13.232ZM42.8437 14.056C42.369 14.056 41.953 13.9627 41.5957 13.776C41.2437 13.584 40.969 13.3227 40.7717 12.992C40.5797 12.6613 40.4837 12.2853 40.4837 11.864C40.4837 11.4373 40.577 11.0613 40.7637 10.736C40.9557 10.4053 41.217 10.1467 41.5477 9.96C41.8837 9.77333 42.265 9.68 42.6917 9.68C43.1077 9.68 43.4784 9.77067 43.8037 9.952C44.129 10.1333 44.385 10.3893 44.5717 10.72C44.7584 11.0507 44.8517 11.44 44.8517 11.888C44.8517 11.9307 44.849 11.9787 44.8437 12.032C44.8437 12.0853 44.841 12.136 44.8357 12.184H41.2757V11.52H44.3077L43.9157 11.728C43.921 11.4827 43.8704 11.2667 43.7637 11.08C43.657 10.8933 43.5104 10.7467 43.3237 10.64C43.1424 10.5333 42.9317 10.48 42.6917 10.48C42.4464 10.48 42.2304 10.5333 42.0437 10.64C41.8624 10.7467 41.7184 10.896 41.6117 11.088C41.5104 11.2747 41.4597 11.496 41.4597 11.752V11.912C41.4597 12.168 41.5184 12.3947 41.6357 12.592C41.753 12.7893 41.9184 12.9413 42.1317 13.048C42.345 13.1547 42.5904 13.208 42.8677 13.208C43.1077 13.208 43.3237 13.1707 43.5157 13.096C43.7077 13.0213 43.8784 12.904 44.0277 12.744L44.5637 13.36C44.3717 13.584 44.129 13.7573 43.8357 13.88C43.5477 13.9973 43.217 14.056 42.8437 14.056ZM47.4203 14.056C46.9509 14.056 46.5883 13.936 46.3322 13.696C46.0763 13.4507 45.9483 13.0907 45.9483 12.616V8.784H46.9483V12.592C46.9483 12.7947 46.9989 12.952 47.1003 13.064C47.2069 13.176 47.3536 13.232 47.5403 13.232C47.7643 13.232 47.9509 13.1733 48.1003 13.056L48.3803 13.768C48.2629 13.864 48.1189 13.936 47.9483 13.984C47.7776 14.032 47.6016 14.056 47.4203 14.056ZM45.2443 10.56V9.76H48.0923V10.56H45.2443ZM51.4138 14V9.728H52.4138V14H51.4138ZM51.9178 9.024C51.7311 9.024 51.5765 8.96533 51.4538 8.848C51.3365 8.73067 51.2778 8.58933 51.2778 8.424C51.2778 8.25333 51.3365 8.112 51.4538 8C51.5765 7.88267 51.7311 7.824 51.9178 7.824C52.1045 7.824 52.2565 7.88 52.3738 7.992C52.4965 8.09867 52.5578 8.23467 52.5578 8.4C52.5578 8.576 52.4991 8.72533 52.3818 8.848C52.2645 8.96533 52.1098 9.024 51.9178 9.024ZM55.3343 14.056C54.865 14.056 54.5023 13.936 54.2463 13.696C53.9903 13.4507 53.8623 13.0907 53.8623 12.616V8.784H54.8623V12.592C54.8623 12.7947 54.913 12.952 55.0143 13.064C55.121 13.176 55.2676 13.232 55.4543 13.232C55.6783 13.232 55.865 13.1733 56.0143 13.056L56.2943 13.768C56.177 13.864 56.033 13.936 55.8623 13.984C55.6916 14.032 55.5156 14.056 55.3343 14.056ZM53.1583 10.56V9.76H56.0063V10.56H53.1583ZM61.2479 14.056C60.8105 14.056 60.4212 13.9627 60.0799 13.776C59.7385 13.584 59.4692 13.3227 59.2719 12.992C59.0745 12.6613 58.9759 12.2853 58.9759 11.864C58.9759 11.4373 59.0745 11.0613 59.2719 10.736C59.4692 10.4053 59.7385 10.1467 60.0799 9.96C60.4212 9.77333 60.8105 9.68 61.2479 9.68C61.6905 9.68 62.0825 9.77333 62.4239 9.96C62.7705 10.1467 63.0399 10.4027 63.2319 10.728C63.4292 11.0533 63.5279 11.432 63.5279 11.864C63.5279 12.2853 63.4292 12.6613 63.2319 12.992C63.0399 13.3227 62.7705 13.584 62.4239 13.776C62.0825 13.9627 61.6905 14.056 61.2479 14.056ZM61.2479 13.2C61.4932 13.2 61.7119 13.1467 61.9039 13.04C62.0959 12.9333 62.2452 12.7787 62.3519 12.576C62.4639 12.3733 62.5199 12.136 62.5199 11.864C62.5199 11.5867 62.4639 11.3493 62.3519 11.152C62.2452 10.9493 62.0959 10.7947 61.9039 10.688C61.7119 10.5813 61.4959 10.528 61.2559 10.528C61.0105 10.528 60.7919 10.5813 60.5999 10.688C60.4132 10.7947 60.2639 10.9493 60.1519 11.152C60.0399 11.3493 59.9839 11.5867 59.9839 11.864C59.9839 12.136 60.0399 12.3733 60.1519 12.576C60.2639 12.7787 60.4132 12.9333 60.5999 13.04C60.7919 13.1467 61.0079 13.2 61.2479 13.2ZM66.9081 9.68C67.2495 9.68 67.5535 9.74667 67.8201 9.88C68.0921 10.0133 68.3055 10.2187 68.4601 10.496C68.6148 10.768 68.6921 11.12 68.6921 11.552V14H67.6921V11.68C67.6921 11.3013 67.6015 11.0187 67.4201 10.832C67.2441 10.6453 66.9961 10.552 66.6761 10.552C66.4415 10.552 66.2335 10.6 66.0521 10.696C65.8708 10.792 65.7295 10.936 65.6281 11.128C65.5321 11.3147 65.4841 11.552 65.4841 11.84V14H64.4841V9.728H65.4361V10.88L65.2681 10.528C65.4175 10.256 65.6335 10.048 65.9161 9.904C66.2041 9.75467 66.5348 9.68 66.9081 9.68Z" fill="white"/>
<path d="M28.5049 16.4589L28.404 16.0308H19.0987V19.9692H24.6585C24.0812 22.7103 21.4027 24.1531 19.2147 24.1531C17.6228 24.1531 15.9446 23.4835 14.8339 22.4071C14.2479 21.8302 13.7815 21.1433 13.4612 20.3859C13.141 19.6284 12.9734 18.8152 12.9679 17.9929C12.9679 16.3339 13.7134 14.6746 14.7982 13.583C15.883 12.4915 17.5214 11.8808 19.1504 11.8808C21.0161 11.8808 22.3531 12.8714 22.8531 13.3232L25.6518 10.5393C24.8308 9.81786 22.5754 8 19.0603 8C16.3482 8 13.7478 9.03884 11.8469 10.9335C9.97098 12.7991 9 15.4969 9 18C9 20.5031 9.91875 23.0661 11.7366 24.9464C13.679 26.9518 16.4299 28 19.2625 28C21.8397 28 24.2826 26.9902 26.0237 25.158C27.7353 23.3545 28.6205 20.8589 28.6205 18.2429C28.6205 17.1415 28.5098 16.4875 28.5049 16.4589Z" fill="white"/>
</svg>
